<?xml version="1.0" standalone="no"?>
<!DOCTYPE svg PUBLIC "-//W3C//DTD SVG 20010904//EN"
 "http://www.w3.org/TR/2001/REC-SVG-20010904/DTD/svg10.dtd">
<svg version="1.0" xmlns="http://www.w3.org/2000/svg"
 width="360.000000pt" height="360.000000pt" viewBox="0 0 360.000000 360.000000"
 preserveAspectRatio="xMidYMid meet">
<metadata>
Created by potrace 1.11, written by Peter Selinger 2001-2013
</metadata>
<g transform="translate(0.000000,360.000000) scale(0.100000,-0.100000)"
fill="#000000" stroke="none">
<path d="M6 2036 c1 -702 4 -1299 8 -1328 9 -68 63 -181 116 -240 84 -96 203
-159 323 -173 l57 -7 1 54 c0 29 2 323 3 653 2 330 6 616 10 635 47 221 168
371 331 411 28 6 57 18 66 25 13 12 19 10 41 -14 14 -15 38 -51 52 -79 52
-104 55 -145 56 -703 0 -283 3 -533 7 -555 12 -88 65 -193 138 -274 156 -172
446 -207 641 -78 52 35 103 84 359 352 94 98 197 206 230 240 33 35 107 112
164 171 102 107 428 447 506 529 22 23 123 128 225 235 102 106 200 208 218
227 17 18 32 37 32 42 0 15 -116 88 -175 110 -127 48 -265 41 -390 -19 -83
-40 -128 -83 -729 -714 -26 -28 -98 -103 -160 -167 -61 -63 -199 -207 -306
-319 -221 -231 -231 -240 -242 -240 -4 0 -8 233 -9 518 0 284 -3 531 -5 547
-7 46 -44 145 -72 190 -34 56 -129 146 -182 174 -114 59 -143 63 -495 65 -154
1 -287 5 -295 9 -14 7 -16 46 -17 290 -1 183 -5 299 -13 327 -55 204 -234 359
-435 377 l-60 5 1 -1276z"/>
</g>
</svg>
