<?xml version="1.0" encoding="utf-8"?>
<!-- Generator: Adobe Illustrator 16.0.0, SVG Export Plug-In . SVG Version: 6.00 Build 0)  -->
<!DOCTYPE svg PUBLIC "-//W3C//DTD SVG 1.1//EN" "http://www.w3.org/Graphics/SVG/1.1/DTD/svg11.dtd">
<svg version="1.1" id="Слой_1" xmlns="http://www.w3.org/2000/svg" xmlns:xlink="http://www.w3.org/1999/xlink" x="0px" y="0px"
	 width="512px" height="512px" viewBox="0 0 512 512" enable-background="new 0 0 512 512" xml:space="preserve">
<path fill-rule="evenodd" clip-rule="evenodd" d="M392.640625,190.5898438h-66.4238281
	c4.1669922-8.6396484,9.203125-27.6337891,14.5-38.6391602h78.4941406
	c-4.3847656,6.5556641-9.0087891,12.8398438-13.2851563,19.3193359
	C401.5410156,177.8691406,396.9824219,184.0991211,392.640625,190.5898438L392.640625,190.5898438z M291.2021484,190.5898438
	h-79.6875c6.9682617,10.4301758,75.4443359,112.4111328,87.2636719,127.671875
	c1.171875,1.5410156,2.2363281,2.7128906,3.2998047,3.9501953c-3.7119141,7.0117188-15.2714844,20.4267578-16.9101563,26.5703125
	c-4.9384766-3.3212891-27.1455078-38.6611328-34.1455078-47.9521484l-33.9614258-49.3837891
	c-11.3964844-17.1923828-22.3691406-32.3115234-33.809082-49.503418l-16.7583008-24.2905273
	c-3.2016602-4.2548828-15.53125-21.7944336-16.5625-25.7016602H305.703125L291.2021484,190.5898438L291.2021484,190.5898438z
	 M317.7724609,119.3461914c-20.7744141,0-185.5869141-1.3564453-201.6611328-0.0107422
	c-10.777832,0.9116211-14.4897461,8.6396484-14.4897461,18.1254883c0,7.3481445,29.3374023,46.3779297,35.2524414,55.2993164
	l112.0751953,163.2504883c2.9736328,4.5146484,11.1464844,15.1953125,11.8085938,18.3857422l0.2607422,91.4960938
	l-61.4428711,8.5966797c-9.7138672,1.6933594-18.3535156,4.9492188-25.4624023,9.5507813
	c-10.734375,6.9902344-14.5332031,15.7597656-14.5332031,27.7636719h254.8115234
	c-0.9121094-40.0498047-53.8339844-39.0507813-90.2158203-43.8271484
	c-4.9052734-0.6513672-11.0703125-2.0839844-17.2792969-2.0839844v-90.5625
	c0-3.3427734,118.21875-173.1376953,130.6787109-191.7299805l25.484375-37.3041992
	c7.1630859-9.9746094,3.2773438-26.6889648-13.5888672-27.0253906l-96.6845703,0.0756836
	c4.8623047-20.8823242,10.9189453-18.972168,29.2177734-29.9453125l74.8691406-44.6953125
	c13.7841797-8.324707,32.3652344-15.2929688,32.3652344-28.0024414c0-8.8022461-6.9462891-16.8989258-18.1035156-16.8989258
	c-4.6025391,0-8.2490234,3.1254883-11.7001953,5.2094727L352.4169922,68.2470703
	c-22.25,12.3300781-21.859375,13.3066406-29.9775391,37.6625977
	C320.9199219,110.5332031,318.9658203,114.2666016,317.7724609,119.3461914L317.7724609,119.3461914z"/>
<path fill-rule="evenodd" clip-rule="evenodd" d="M21.9228516,130.2109375c0,29.9667969,10.734375,53.8012695,26.8520508,69.7456055
	c27.1342773,26.8300781,45.4770508,30.4770508,81.8256836,30.4770508c7.3266602,0,0.25-7.8144531-3.625-13.2739258
	c-18.4619141-25.9838867-9.2148438-17.409668-26.7324219-22.7709961c-6.675293-2.0512695-11.9282227-4.4282227-17.1162109-8.2490234
	c-18.1689453-13.4257813-33.6791992-37.4667969-26.4936523-68.3129883
	c3.0932617-13.3066406,9.8442383-23.2050781,18.0927734-31.4106445
	c25.3432617-25.190918,67.1191406-23.1831055,87.5893555-2.4091797c4.796875,4.8515625,8.5742188,7.5864258,11.7543945,13.5996094
	h36.2294922C209.159668,83.8549805,188.8417969,62.625,177.8793945,53.953125
	c-35.3393555-27.9482422-92.190918-24.8657227-126.7055664,8.9106445
	C34.6220703,79.0576172,21.9228516,105.3017578,21.9228516,130.2109375L21.9228516,130.2109375z"/>
</svg>
