<?xml version="1.0" encoding="UTF-8" ?>
<!DOCTYPE svg PUBLIC "-//W3C//DTD SVG 1.1//EN" "http://www.w3.org/Graphics/SVG/1.1/DTD/svg11.dtd">
<svg width="360pt" height="306pt" viewBox="0 0 360 306" version="1.1" xmlns="http://www.w3.org/2000/svg">
<g id="#ffffffff">
</g>
<g id="#231f20ff">
<path fill="#231f20" opacity="1.00" d=" M 0.00 1.30 C 11.39 1.37 22.76 5.19 31.66 12.35 C 43.34 21.53 50.73 36.09 50.68 51.00 C 50.67 61.68 50.66 72.35 50.66 83.02 C 50.71 87.92 50.38 92.86 51.30 97.70 C 51.12 98.06 50.75 98.77 50.57 99.12 L 50.51 99.25 C 50.06 96.84 49.54 94.46 49.09 92.06 C 48.40 82.83 47.17 73.62 47.28 64.35 C 47.13 64.37 46.83 64.41 46.68 64.43 C 46.75 73.95 45.71 83.54 47.38 92.98 C 47.69 95.29 48.14 97.58 48.71 99.83 C 43.56 87.93 44.13 74.69 42.55 62.09 C 42.82 69.71 41.75 77.36 42.85 84.95 C 43.40 89.83 44.79 94.56 45.77 99.36 C 39.80 88.96 39.50 76.64 38.40 65.02 C 38.43 75.83 39.35 86.69 42.59 97.07 C 38.29 92.02 37.25 85.13 35.85 78.84 C 34.78 73.32 33.62 67.74 34.30 62.08 C 33.90 65.35 33.62 68.68 34.20 71.95 C 35.41 79.59 36.01 87.53 39.29 94.64 C 39.93 96.08 40.45 97.56 40.80 99.09 C 40.36 98.53 39.47 97.39 39.03 96.83 C 31.99 86.74 29.51 74.13 28.96 62.05 C 28.63 73.69 30.61 85.70 36.14 96.06 C 35.21 95.22 34.28 94.39 33.39 93.51 C 26.86 84.42 24.26 73.14 23.74 62.11 C 23.65 73.48 26.45 84.93 32.33 94.69 L 33.39 93.51 C 33.30 94.27 33.14 95.79 33.05 96.54 C 24.03 87.99 20.41 75.21 19.73 63.12 C 19.62 75.33 22.29 88.93 31.68 97.50 C 31.28 97.61 30.48 97.84 30.08 97.95 C 29.68 98.17 28.89 98.60 28.50 98.81 L 27.42 98.19 C 27.95 97.55 28.47 96.90 28.97 96.23 C 19.27 87.72 15.44 74.65 14.68 62.16 C 14.87 71.37 16.82 80.72 21.21 88.87 C 22.79 91.65 24.61 94.43 27.43 96.10 C 26.94 96.54 26.45 96.99 25.95 97.44 C 15.33 89.01 11.24 75.13 10.51 62.10 C 10.55 71.21 12.54 80.37 16.66 88.53 C 19.88 95.06 25.83 100.16 32.85 102.14 C 36.50 102.97 40.25 102.42 43.94 102.56 C 47.11 102.52 50.48 103.25 53.39 101.62 C 54.71 102.62 56.45 102.30 57.99 102.38 C 74.33 102.32 90.68 102.36 107.03 102.35 C 120.27 102.26 133.46 107.82 142.66 117.35 C 151.83 126.38 157.02 139.11 157.30 151.94 C 157.31 185.31 157.21 218.67 157.34 252.03 C 160.82 250.93 163.06 247.95 165.51 245.46 C 206.30 202.89 247.12 160.36 287.94 117.82 C 297.60 107.54 311.93 101.90 325.99 102.50 C 338.25 102.93 349.98 108.44 358.76 116.89 C 304.18 173.91 249.58 230.92 194.95 287.90 C 187.16 296.28 176.50 302.02 165.14 303.60 C 149.09 306.10 131.91 300.14 121.02 288.05 C 112.17 279.03 106.88 266.62 106.61 253.98 C 106.59 222.99 106.64 192.00 106.58 161.02 C 106.45 147.50 103.16 132.77 92.59 123.47 C 85.63 116.75 76.07 113.75 66.72 112.27 C 46.87 108.84 26.99 115.73 10.19 125.97 C 23.20 119.33 37.24 113.58 52.06 113.34 C 38.00 116.02 24.15 121.33 13.01 130.48 C 20.37 125.02 28.88 121.36 37.54 118.51 C 42.95 116.97 48.43 115.29 54.11 115.33 C 40.07 118.66 27.01 125.51 15.85 134.59 C 27.42 126.09 40.77 120.15 54.71 116.80 C 55.02 116.92 55.63 117.16 55.94 117.28 C 42.24 121.40 29.27 128.70 19.32 139.04 C 25.76 133.25 33.10 128.55 40.91 124.83 C 45.18 122.90 49.46 120.77 54.13 120.01 C 50.89 121.89 47.37 123.24 44.17 125.19 C 37.23 129.18 31.11 134.40 25.31 139.86 C 34.81 132.48 44.78 125.45 56.19 121.33 C 57.74 120.80 59.29 120.27 60.83 119.69 C 61.65 119.55 63.28 119.27 64.10 119.13 C 50.35 124.73 38.48 134.00 28.27 144.65 C 39.73 134.06 52.85 124.53 68.00 120.14 C 54.37 126.04 42.88 135.88 33.27 147.05 C 44.23 136.06 56.73 125.66 71.87 121.18 C 69.67 122.17 67.34 123.03 65.62 124.79 L 64.92 124.46 C 64.80 124.87 64.58 125.69 64.47 126.11 C 62.94 124.97 61.59 126.63 60.30 127.25 C 50.44 133.68 42.83 142.75 35.36 151.70 C 41.96 144.86 48.36 137.72 56.17 132.21 C 58.85 130.04 62.11 128.66 64.47 126.11 L 65.14 126.34 C 65.26 125.95 65.50 125.18 65.62 124.79 C 66.18 125.02 67.31 125.46 67.88 125.69 C 66.34 126.52 64.87 127.48 63.54 128.61 C 61.97 129.09 60.82 130.28 59.67 131.37 C 53.07 136.15 48.05 142.67 43.12 149.07 C 41.49 151.16 40.25 153.51 39.07 155.88 C 42.83 150.18 47.63 145.29 52.32 140.37 C 54.73 137.97 57.06 135.39 60.07 133.72 C 53.26 141.43 46.70 149.63 42.54 159.12 C 45.83 155.13 47.54 150.08 51.21 146.37 C 55.26 140.86 60.28 136.25 65.14 131.50 C 65.61 131.50 66.55 131.49 67.02 131.48 C 65.94 132.56 64.93 133.71 64.10 135.00 C 58.71 137.87 56.20 143.96 52.49 148.55 C 50.16 151.22 49.06 154.65 48.20 158.02 C 50.61 155.12 51.61 150.85 55.24 149.16 C 53.83 153.41 52.03 157.53 51.17 161.94 C 52.96 158.85 53.68 155.20 56.01 152.43 L 56.62 154.10 C 53.30 162.00 51.41 170.48 50.63 179.00 C 50.58 220.50 50.88 262.01 50.50 303.50 C 45.24 303.05 39.93 302.45 34.92 300.71 C 18.08 295.31 4.80 280.40 1.27 263.09 C -0.01 257.50 0.27 251.73 0.26 246.05 C 0.26 166.03 0.25 86.02 0.26 6.01 C 0.24 4.52 0.13 3.04 0.00 1.56 L 0.00 1.30 M 182.33 230.47 C 181.77 231.82 181.40 233.25 180.74 234.56 C 173.53 241.90 166.27 249.36 157.42 254.76 C 158.55 255.85 159.18 257.26 159.54 258.78 C 170.48 254.15 178.02 244.60 186.10 236.34 C 184.27 237.66 182.68 239.28 181.16 240.94 C 175.24 246.91 168.59 252.18 161.28 256.34 C 160.59 255.96 159.91 255.57 159.23 255.18 C 169.18 249.79 174.89 239.35 183.80 232.65 C 183.30 231.92 182.81 231.20 182.33 230.47 M 184.58 243.16 C 176.97 249.61 169.40 256.77 159.73 260.00 L 159.30 261.61 C 167.37 259.92 173.60 253.77 179.57 248.42 C 181.82 246.75 183.33 243.24 186.44 243.26 C 186.63 242.78 187.02 241.83 187.22 241.35 C 188.81 240.47 190.45 239.33 191.06 237.53 C 188.55 238.89 185.24 239.98 184.58 243.16 M 159.98 262.52 C 161.84 265.44 163.55 268.61 166.46 270.63 C 171.94 275.19 179.71 276.34 186.42 274.20 C 196.44 271.16 204.60 263.99 211.57 256.45 C 209.67 257.87 208.45 260.47 205.99 260.91 C 202.80 264.95 197.98 267.32 193.52 269.72 C 186.37 273.47 177.30 275.30 169.87 271.28 C 174.27 271.62 178.77 272.10 183.09 270.85 C 193.49 268.25 201.41 260.57 208.95 253.42 C 202.93 258.36 197.07 263.70 189.81 266.79 C 183.67 269.89 176.68 270.52 169.92 269.85 C 169.84 269.31 169.69 268.23 169.62 267.70 C 168.98 267.96 167.71 268.49 167.07 268.75 C 167.97 268.17 168.88 267.60 169.79 267.03 C 169.07 266.86 167.63 266.52 166.91 266.34 C 175.68 267.10 183.85 262.86 190.45 257.46 C 194.20 254.41 198.09 251.39 200.86 247.37 C 195.48 253.38 188.80 258.19 181.56 261.71 C 177.89 263.29 174.00 265.01 169.91 264.56 C 176.59 262.36 182.16 257.96 187.45 253.47 C 189.98 250.85 193.29 249.02 195.19 245.82 C 195.97 245.68 197.81 245.53 197.51 244.36 C 195.06 244.05 194.29 247.34 192.59 248.58 C 185.62 254.15 178.51 259.93 169.99 262.95 C 167.71 263.88 165.21 263.82 162.80 263.72 C 174.67 260.65 183.50 251.50 191.78 243.01 C 182.55 251.32 172.78 260.55 159.98 262.52 M 197.28 257.27 C 189.49 263.12 180.10 268.31 170.02 267.34 C 170.03 267.90 170.06 269.03 170.07 269.60 C 174.23 268.94 178.52 268.84 182.49 267.28 C 191.18 264.02 198.10 257.55 204.66 251.21 C 201.93 252.90 199.97 255.52 197.28 257.27 Z" />
<path fill="#231f20" opacity="1.00" d=" M 33.05 96.54 L 33.63 96.27 C 33.49 96.34 33.20 96.48 33.05 96.54 Z" />
<path fill="#231f20" opacity="1.00" d=" M 64.10 135.00 C 64.57 134.91 65.52 134.74 65.99 134.66 C 65.53 135.81 64.74 136.66 63.62 137.21 C 63.74 136.65 63.98 135.55 64.10 135.00 Z" />
<path fill="#231f20" opacity="1.00" d=" M 62.13 138.36 C 62.33 138.22 62.74 137.94 62.95 137.81 C 62.74 137.94 62.33 138.22 62.13 138.36 Z" />
</g>
<g id="#e4e4e4ff">
<path fill="#e4e4e4" opacity="1.00" d=" M 10.51 62.10 C 11.24 75.13 15.33 89.01 25.95 97.44 C 26.45 96.99 26.94 96.54 27.43 96.10 C 24.61 94.43 22.79 91.65 21.21 88.87 C 16.82 80.72 14.87 71.37 14.68 62.16 C 15.44 74.65 19.27 87.72 28.97 96.23 C 28.47 96.90 27.95 97.55 27.42 98.19 L 28.50 98.81 C 29.04 99.14 30.11 99.78 30.65 100.10 C 31.64 99.43 32.64 98.76 33.64 98.10 C 35.03 98.80 36.42 99.50 37.82 100.20 C 37.63 99.68 37.26 98.64 37.08 98.12 C 37.57 97.80 38.54 97.15 39.03 96.83 C 39.47 97.39 40.36 98.53 40.80 99.09 C 40.45 97.56 39.93 96.08 39.29 94.64 C 36.01 87.53 35.41 79.59 34.20 71.95 C 33.62 68.68 33.90 65.35 34.30 62.08 C 33.62 67.74 34.78 73.32 35.85 78.84 C 37.25 85.13 38.29 92.02 42.59 97.07 C 39.35 86.69 38.43 75.83 38.40 65.02 C 39.50 76.64 39.80 88.96 45.77 99.36 C 45.12 99.64 43.83 100.21 43.18 100.49 C 45.31 100.40 47.43 100.34 49.56 100.32 L 49.58 102.06 C 44.01 102.25 38.43 102.24 32.85 102.14 C 25.83 100.16 19.88 95.06 16.66 88.53 C 12.54 80.37 10.55 71.21 10.51 62.10 Z" />
<path fill="#e4e4e4" opacity="1.00" d=" M 32.33 94.69 C 26.45 84.93 23.65 73.48 23.74 62.11 C 24.26 73.14 26.86 84.42 33.39 93.51 L 32.33 94.69 Z" />
<path fill="#e4e4e4" opacity="1.00" d=" M 64.47 126.11 C 64.58 125.69 64.80 124.87 64.92 124.46 L 65.62 124.79 C 65.50 125.18 65.26 125.95 65.14 126.34 L 64.47 126.11 Z" />
<path fill="#e4e4e4" opacity="1.00" d=" M 182.33 230.47 C 182.81 231.20 183.30 231.92 183.80 232.65 C 174.89 239.35 169.18 249.79 159.23 255.18 C 159.91 255.57 160.59 255.96 161.28 256.34 C 168.59 252.18 175.24 246.91 181.16 240.94 C 182.68 239.28 184.27 237.66 186.10 236.34 C 178.02 244.60 170.48 254.15 159.54 258.78 C 159.18 257.26 158.55 255.85 157.42 254.76 C 166.27 249.36 173.53 241.90 180.74 234.56 C 181.40 233.25 181.77 231.82 182.33 230.47 Z" />
<path fill="#e4e4e4" opacity="1.00" d=" M 184.58 243.16 C 185.24 239.98 188.55 238.89 191.06 237.53 C 190.45 239.33 188.81 240.47 187.22 241.35 C 187.02 241.83 186.63 242.78 186.44 243.26 C 183.33 243.24 181.82 246.75 179.57 248.42 C 173.60 253.77 167.37 259.92 159.30 261.61 L 159.73 260.00 C 169.40 256.77 176.97 249.61 184.58 243.16 Z" />
</g>
<g id="#b0b1b3ff">
<path fill="#b0b1b3" opacity="1.00" d=" M 28.96 62.05 C 29.51 74.13 31.99 86.74 39.03 96.83 C 38.54 97.15 37.57 97.80 37.08 98.12 C 37.26 98.64 37.63 99.68 37.82 100.20 C 36.42 99.50 35.03 98.80 33.64 98.10 C 32.64 98.76 31.64 99.43 30.65 100.10 C 30.11 99.78 29.04 99.14 28.50 98.81 C 28.89 98.60 29.68 98.17 30.08 97.95 C 30.48 97.84 31.28 97.61 31.68 97.50 C 22.29 88.93 19.62 75.33 19.73 63.12 C 20.41 75.21 24.03 87.99 33.05 96.54 C 33.20 96.48 33.49 96.34 33.63 96.27 L 33.05 96.54 C 33.14 95.79 33.30 94.27 33.39 93.51 C 34.28 94.39 35.21 95.22 36.14 96.06 C 30.61 85.70 28.63 73.69 28.96 62.05 Z" />
<path fill="#b0b1b3" opacity="1.00" d=" M 64.05 114.77 C 67.44 114.80 70.76 115.57 74.01 116.48 C 73.20 116.63 71.57 116.93 70.75 117.08 C 69.25 117.39 67.87 118.07 66.54 118.82 C 69.63 119.04 72.68 119.60 75.71 120.26 C 74.46 121.25 73.42 122.45 72.76 123.92 C 74.84 123.56 77.17 122.59 78.88 124.44 C 74.88 126.01 70.43 127.17 67.25 130.20 L 67.02 131.48 C 66.55 131.49 65.61 131.50 65.14 131.50 C 65.45 130.83 66.06 129.48 66.37 128.81 C 65.66 128.76 64.24 128.66 63.54 128.61 C 64.87 127.48 66.34 126.52 67.88 125.69 C 67.31 125.46 66.18 125.02 65.62 124.79 C 67.34 123.03 69.67 122.17 71.87 121.18 C 56.73 125.66 44.23 136.06 33.27 147.05 C 42.88 135.88 54.37 126.04 68.00 120.14 C 52.85 124.53 39.73 134.06 28.27 144.65 C 38.48 134.00 50.35 124.73 64.10 119.13 C 63.28 119.27 61.65 119.55 60.83 119.69 C 61.62 117.99 63.27 117.19 64.87 116.45 C 64.67 116.03 64.25 115.19 64.05 114.77 Z" />
<path fill="#b0b1b3" opacity="1.00" d=" M 59.67 131.37 C 60.82 130.28 61.97 129.09 63.54 128.61 C 64.11 130.80 61.53 132.43 59.67 131.37 Z" />
<path fill="#b0b1b3" opacity="1.00" d=" M 67.02 131.48 C 68.66 130.53 70.35 129.68 72.09 128.91 C 70.28 130.70 68.14 132.14 66.53 134.12 C 66.40 134.25 66.13 134.52 65.99 134.66 C 65.52 134.74 64.57 134.91 64.10 135.00 C 64.93 133.71 65.94 132.56 67.02 131.48 Z" />
</g>
<g id="#808082ff">
<path fill="#808082" opacity="1.00" d=" M 42.85 84.95 C 41.75 77.36 42.82 69.71 42.55 62.09 C 44.13 74.69 43.56 87.93 48.71 99.83 C 48.14 97.58 47.69 95.29 47.38 92.98 L 49.09 92.06 C 49.54 94.46 50.06 96.84 50.51 99.25 L 50.57 99.12 C 50.46 99.47 50.23 100.17 50.12 100.52 C 51.29 100.68 52.38 101.04 53.39 101.62 C 50.48 103.25 47.11 102.52 43.94 102.56 C 40.25 102.42 36.50 102.97 32.85 102.14 C 38.43 102.24 44.01 102.25 49.58 102.06 L 49.56 100.32 C 47.43 100.34 45.31 100.40 43.18 100.49 C 43.83 100.21 45.12 99.64 45.77 99.36 C 44.79 94.56 43.40 89.83 42.85 84.95 Z" />
<path fill="#808082" opacity="1.00" d=" M 63.54 128.61 C 64.24 128.66 65.66 128.76 66.37 128.81 C 66.06 129.48 65.45 130.83 65.14 131.50 C 60.28 136.25 55.26 140.86 51.21 146.37 C 47.54 150.08 45.83 155.13 42.54 159.12 C 46.70 149.63 53.26 141.43 60.07 133.72 C 57.06 135.39 54.73 137.97 52.32 140.37 C 47.63 145.29 42.83 150.18 39.07 155.88 C 40.25 153.51 41.49 151.16 43.12 149.07 C 48.05 142.67 53.07 136.15 59.67 131.37 C 61.53 132.43 64.11 130.80 63.54 128.61 Z" />
</g>
<g id="#8a8a8cff">
<path fill="#8a8a8c" opacity="1.00" d=" M 46.68 64.43 C 46.83 64.41 47.13 64.37 47.28 64.35 C 47.17 73.62 48.40 82.83 49.09 92.06 L 47.38 92.98 C 45.71 83.54 46.75 73.95 46.68 64.43 Z" />
<path fill="#8a8a8c" opacity="1.00" d=" M 54.71 116.80 C 56.94 116.08 59.28 115.81 61.62 115.97 C 60.74 116.81 59.68 117.31 58.44 117.48 C 58.60 117.82 58.91 118.49 59.07 118.82 C 57.65 119.41 56.23 120.01 54.82 120.61 C 55.16 120.79 55.85 121.15 56.19 121.33 C 44.78 125.45 34.81 132.48 25.31 139.86 C 31.11 134.40 37.23 129.18 44.17 125.19 C 47.37 123.24 50.89 121.89 54.13 120.01 C 49.46 120.77 45.18 122.90 40.91 124.83 C 33.10 128.55 25.76 133.25 19.32 139.04 C 29.27 128.70 42.24 121.40 55.94 117.28 C 55.63 117.16 55.02 116.92 54.71 116.80 Z" />
<path fill="#8a8a8c" opacity="1.00" d=" M 52.49 148.55 C 56.20 143.96 58.71 137.87 64.10 135.00 C 63.98 135.55 63.74 136.65 63.62 137.21 C 63.46 137.36 63.12 137.66 62.95 137.81 C 62.74 137.94 62.33 138.22 62.13 138.36 C 58.29 140.72 56.39 144.96 53.49 148.22 L 52.49 148.55 Z" />
</g>
<g id="#a4a5a7ff">
<path fill="#a4a5a7" opacity="1.00" d=" M 10.19 125.97 C 26.99 115.73 46.87 108.84 66.72 112.27 C 66.57 112.51 66.26 112.99 66.11 113.22 C 63.71 112.79 61.26 112.64 58.84 113.08 C 59.85 115.08 62.22 114.57 64.05 114.77 C 64.25 115.19 64.67 116.03 64.87 116.45 C 63.27 117.19 61.62 117.99 60.83 119.69 C 59.29 120.27 57.74 120.80 56.19 121.33 C 55.85 121.15 55.16 120.79 54.82 120.61 C 56.23 120.01 57.65 119.41 59.07 118.82 C 58.91 118.49 58.60 117.82 58.44 117.48 C 59.68 117.31 60.74 116.81 61.62 115.97 C 59.28 115.81 56.94 116.08 54.71 116.80 C 40.77 120.15 27.42 126.09 15.85 134.59 C 27.01 125.51 40.07 118.66 54.11 115.33 C 48.43 115.29 42.95 116.97 37.54 118.51 C 28.88 121.36 20.37 125.02 13.01 130.48 C 24.15 121.33 38.00 116.02 52.06 113.34 C 37.24 113.58 23.20 119.33 10.19 125.97 Z" />
<path fill="#a4a5a7" opacity="1.00" d=" M 60.30 127.25 C 61.59 126.63 62.94 124.97 64.47 126.11 C 62.11 128.66 58.85 130.04 56.17 132.21 C 48.36 137.72 41.96 144.86 35.36 151.70 C 42.83 142.75 50.44 133.68 60.30 127.25 Z" />
</g>
<g id="#f1f1f3ff">
<path fill="#f1f1f3" opacity="1.00" d=" M 66.72 112.27 C 76.07 113.75 85.63 116.75 92.59 123.47 C 92.28 124.18 91.64 125.58 91.32 126.28 C 88.62 127.42 85.80 128.31 82.88 128.70 C 82.10 128.43 80.54 127.90 79.76 127.64 C 80.90 127.45 82.25 127.30 82.88 126.17 C 81.55 125.75 80.20 125.65 78.82 125.86 C 79.95 125.25 81.09 124.65 82.19 123.98 C 82.47 123.49 83.03 122.50 83.30 122.01 C 81.51 121.98 79.73 121.96 77.94 121.93 C 76.56 119.08 73.49 118.13 70.75 117.08 C 71.57 116.93 73.20 116.63 74.01 116.48 C 70.76 115.57 67.44 114.80 64.05 114.77 C 62.22 114.57 59.85 115.08 58.84 113.08 C 61.26 112.64 63.71 112.79 66.11 113.22 C 66.26 112.99 66.57 112.51 66.72 112.27 Z" />
<path fill="#f1f1f3" opacity="1.00" d=" M 159.98 262.52 C 172.78 260.55 182.55 251.32 191.78 243.01 C 183.50 251.50 174.67 260.65 162.80 263.72 C 165.21 263.82 167.71 263.88 169.99 262.95 C 178.51 259.93 185.62 254.15 192.59 248.58 C 194.29 247.34 195.06 244.05 197.51 244.36 C 197.81 245.53 195.97 245.68 195.19 245.82 C 193.29 249.02 189.98 250.85 187.45 253.47 C 182.16 257.96 176.59 262.36 169.91 264.56 C 174.00 265.01 177.89 263.29 181.56 261.71 C 188.80 258.19 195.48 253.38 200.86 247.37 C 198.09 251.39 194.20 254.41 190.45 257.46 C 183.85 262.86 175.68 267.10 166.91 266.34 C 167.63 266.52 169.07 266.86 169.79 267.03 C 168.88 267.60 167.97 268.17 167.07 268.75 C 167.71 268.49 168.98 267.96 169.62 267.70 C 169.69 268.23 169.84 269.31 169.92 269.85 C 176.68 270.52 183.67 269.89 189.81 266.79 C 197.07 263.70 202.93 258.36 208.95 253.42 C 201.41 260.57 193.49 268.25 183.09 270.85 C 178.77 272.10 174.27 271.62 169.87 271.28 C 177.30 275.30 186.37 273.47 193.52 269.72 C 197.98 267.32 202.80 264.95 205.99 260.91 C 208.45 260.47 209.67 257.87 211.57 256.45 C 204.60 263.99 196.44 271.16 186.42 274.20 C 179.71 276.34 171.94 275.19 166.46 270.63 C 163.55 268.61 161.84 265.44 159.98 262.52 Z" />
<path fill="#f1f1f3" opacity="1.00" d=" M 197.28 257.27 C 199.97 255.52 201.93 252.90 204.66 251.21 C 198.10 257.55 191.18 264.02 182.49 267.28 C 178.52 268.84 174.23 268.94 170.07 269.60 C 170.06 269.03 170.03 267.90 170.02 267.34 C 180.10 268.31 189.49 263.12 197.28 257.27 Z" />
</g>
<g id="#d5d7d9ff">
<path fill="#d5d7d9" opacity="1.00" d=" M 66.54 118.82 C 67.87 118.07 69.25 117.39 70.75 117.08 C 73.49 118.13 76.56 119.08 77.94 121.93 C 79.73 121.96 81.51 121.98 83.30 122.01 C 83.03 122.50 82.47 123.49 82.19 123.98 C 81.09 124.14 79.99 124.29 78.88 124.44 C 77.17 122.59 74.84 123.56 72.76 123.92 C 73.42 122.45 74.46 121.25 75.71 120.26 C 72.68 119.60 69.63 119.04 66.54 118.82 Z" />
</g>
<g id="#5b5b5bff">
<path fill="#5b5b5b" opacity="1.00" d=" M 78.88 124.44 C 79.99 124.29 81.09 124.14 82.19 123.98 C 81.09 124.65 79.95 125.25 78.82 125.86 C 76.95 125.38 75.27 126.42 74.05 127.73 C 73.56 128.03 72.58 128.62 72.09 128.91 C 70.35 129.68 68.66 130.53 67.02 131.48 L 67.25 130.20 C 70.43 127.17 74.88 126.01 78.88 124.44 Z" />
<path fill="#5b5b5b" opacity="1.00" d=" M 61.86 141.46 C 65.17 139.04 67.26 134.45 71.67 133.98 C 64.94 139.21 60.12 146.41 56.62 154.10 L 56.01 152.43 C 53.68 155.20 52.96 158.85 51.17 161.94 C 52.03 157.53 53.83 153.41 55.24 149.16 C 51.61 150.85 50.61 155.12 48.20 158.02 C 49.06 154.65 50.16 151.22 52.49 148.55 L 53.49 148.22 C 56.39 144.96 58.29 140.72 62.13 138.36 C 62.06 139.13 61.93 140.68 61.86 141.46 Z" />
</g>
<g id="#b7bbbcff">
<path fill="#b7bbbc" opacity="1.00" d=" M 74.05 127.73 C 75.27 126.42 76.95 125.38 78.82 125.86 C 78.43 126.58 77.96 127.22 77.38 127.79 C 76.55 127.78 74.88 127.75 74.05 127.73 Z" />
</g>
<g id="#848687ff">
<path fill="#848687" opacity="1.00" d=" M 78.82 125.86 C 80.20 125.65 81.55 125.75 82.88 126.17 C 82.25 127.30 80.90 127.45 79.76 127.64 C 79.16 127.67 77.98 127.75 77.38 127.79 C 77.96 127.22 78.43 126.58 78.82 125.86 Z" />
</g>
<g id="#adb1b1ff">
<path fill="#adb1b1" opacity="1.00" d=" M 72.09 128.91 C 72.58 128.62 73.56 128.03 74.05 127.73 L 73.85 128.57 C 73.41 128.66 72.53 128.83 72.09 128.91 Z" />
</g>
<g id="#717273ff">
<path fill="#717273" opacity="1.00" d=" M 74.05 127.73 C 74.88 127.75 76.55 127.78 77.38 127.79 C 75.99 129.03 74.39 130.01 72.72 130.85 C 73.44 131.06 74.88 131.48 75.60 131.69 C 74.29 132.45 72.99 133.24 71.67 133.98 C 67.26 134.45 65.17 139.04 61.86 141.46 C 61.93 140.68 62.06 139.13 62.13 138.36 C 62.33 138.22 62.74 137.94 62.95 137.81 C 63.12 137.66 63.46 137.36 63.62 137.21 C 64.74 136.66 65.53 135.81 65.99 134.66 C 66.13 134.52 66.40 134.25 66.53 134.12 C 68.14 132.14 70.28 130.70 72.09 128.91 C 72.53 128.83 73.41 128.66 73.85 128.57 L 74.05 127.73 Z" />
</g>
<g id="#999c9dff">
<path fill="#999c9d" opacity="1.00" d=" M 77.38 127.79 C 77.98 127.75 79.16 127.67 79.76 127.64 C 80.54 127.90 82.10 128.43 82.88 128.70 C 80.36 129.46 77.92 130.45 75.60 131.69 C 74.88 131.48 73.44 131.06 72.72 130.85 C 74.39 130.01 75.99 129.03 77.38 127.79 Z" />
</g>
<g id="#3a3a3cff">
<path fill="#3a3a3c" opacity="1.00" d=" M 65.99 134.66 C 66.13 134.52 66.40 134.25 66.53 134.12 C 66.40 134.25 66.13 134.52 65.99 134.66 Z" />
</g>
<g id="#2d2d2fff">
<path fill="#2d2d2f" opacity="1.00" d=" M 62.95 137.81 C 63.12 137.66 63.46 137.36 63.62 137.21 C 63.46 137.36 63.12 137.66 62.95 137.81 Z" />
</g>
</svg>
